<?xml version="1.0" encoding="UTF-8"?>
<svg id="logo" xmlns="http://www.w3.org/2000/svg" viewBox="0 0 500 500">
  <path d="m406.986,109.863c0-11.527-9.344-20.869-20.871-20.869s-20.871,9.342-20.871,20.869,20.871,34.683,20.871,34.683c0,0,20.871-23.156,20.871-34.683Zm-30.233-.326c0-5.17,4.191-9.36,9.361-9.36s9.359,4.191,9.359,9.36-4.191,9.36-9.359,9.36-9.361-4.191-9.361-9.36Z" style="fill: #fff;"/>
  <path d="m92.979,307.838c-5.521,0-10.362,2.704-13.742,6.533-2.703-3.83-7.208-6.533-13.966-6.533-3.828,0-7.208,1.354-10.022,3.604v-2.028h-13.18v64.31h13.18v-44.824c.788-4.73,3.602-8.334,7.77-8.334,4.73,0,6.644,3.716,6.644,7.657v45.502h13.178v-44.936c.788-4.843,3.831-8.222,7.997-8.222,4.617,0,6.533,3.716,6.533,7.657v45.502h13.178v-46.513c0-9.012-4.055-19.373-17.57-19.373Z" style="fill: #fff;"/>
  <path d="m153.235,307.613c-16.328,0-27.254,13.516-27.254,34.015s10.926,33.9,27.254,33.9c16.444,0,27.37-13.403,27.37-33.9s-10.926-34.015-27.37-34.015Zm0,54.4c-7.994,0-13.515-7.208-13.515-20.385s5.521-20.613,13.515-20.613c8.337,0,13.628,7.434,13.628,20.613s-5.292,20.385-13.628,20.385Z" style="fill: #fff;"/>
  <path d="m233.88,366.405c-2.816-.676-4.168-.902-17.57-.902-5.858,0-9.123-.112-9.123-3.379,0-1.577,1.914-5.181,4.954-5.181,1.914.676,4.843.788,7.435.788h.224c13.178,0,21.625-10.136,21.625-24.44,0-5.969-2.028-11.15-3.718-13.854.224-.675,2.929-1.126,5.743-1.126.564,0,1.242.112,1.803.112v-16.331h-2.141c-7.883,0-12.613,1.803-15.653,6.983-2.365-1.125-5.521-2.028-9.123-2.028-15.769,0-23.428,12.052-23.428,26.694,0,7.319,2.705,14.19,5.632,16.893-4.166,2.478-6.42,7.434-6.42,12.503,0,4.055,1.466,8.222,4.619,11.037-4.393,2.48-6.758,7.997-6.758,13.966,0,10.813,7.77,22.864,25.904,22.864,19.371,0,28.944-13.516,28.944-26.243,0-8.448-4.168-16.33-12.951-18.357Zm-15.543-46.516c6.868,0,10.362,5.744,10.362,13.176,0,7.322-3.831,12.84-10.138,12.84-7.095,0-11.037-4.954-11.037-12.5,0-7.999,3.715-13.516,10.813-13.516Zm-.34,78.276c-6.307,0-12.838-4.055-12.838-11.375,0-3.83,1.914-7.434,5.629-8.11,3.944.339,16.782-.336,19.147,1.127,2.028,1.239,3.042,3.491,3.042,5.969,0,5.969-5.632,12.389-14.981,12.389Z" style="fill: #fff;"/>
  <path d="m311.933,307.838c-5.521,0-10.362,2.704-13.742,6.533-2.703-3.83-7.208-6.533-13.966-6.533-3.828,0-7.208,1.354-10.024,3.604v-2.028h-13.178v64.31h13.178v-44.824c.788-4.73,3.604-8.334,7.773-8.334,4.73,0,6.644,3.716,6.644,7.657v45.502h13.178v-44.936c.788-4.843,3.828-8.222,7.997-8.222,4.617,0,6.531,3.716,6.531,7.657v45.502h13.178v-46.513c0-9.012-4.053-19.373-17.568-19.373Z" style="fill: #fff;"/>
  <path d="m366.894,307.613c-5.518,0-11.037,1.014-15.88,2.704v13.403c4.843-1.802,9.8-2.816,14.079-2.816,6.758,0,11.825,2.59,11.825,8.785v4.166c-2.703-.674-5.743-.899-8.785-.899-14.528,0-23.199,9.684-23.199,21.849,0,12.5,8.672,20.159,19.822,20.159,4.843,0,8.898-1.35,12.163-4.166v2.927h13.404v-46.739c0-14.305-11.377-19.373-23.428-19.373Zm10.024,50.457c-3.264,3.267-6.982,4.506-10.586,4.506-6.307,0-8.561-4.055-8.561-8.335,0-1.914.338-8.785,11.15-8.785,2.592,0,5.521.451,7.997,1.915v10.699Z" style="fill: #fff;"/>
  <path d="m434.585,307.613c-4.506,0-8.448,1.352-11.938,3.604v-1.688h-13.853v101.025l13.853-.112v-38.519c3.491,2.141,7.433,3.492,11.828,3.492,15.991,0,26.693-13.967,26.693-33.902,0-19.371-10.251-33.901-26.582-33.901Zm-.675,54.061c-4.73,0-8.672-1.802-11.263-5.856v-28.607c2.365-3.83,6.309-5.97,11.039-5.97,8.445,0,13.626,8.673,13.626,20.273,0,11.489-4.954,20.16-13.402,20.16Z" style="fill: #fff;"/>
  <path d="m484.536,241.968c-22.886-.006-45.773-.014-68.659-.02,2.673-2.35,4.641-5.488,5.447-9.079h10.662c2.074,0,3.754-1.679,3.754-3.754v-60.414c0-6.544-5.321-11.864-11.86-11.864h-70.312c-5.738,0-10.65,4.055-11.68,9.605l-4.829,24.631h-9.566c-6.541,0-11.862,5.346-11.862,11.916v26.126c0,2.076,1.68,3.754,3.754,3.754h10.684c.808,3.581,2.771,6.708,5.442,9.056-13.547-.005-27.097-.009-40.644-.012-10.128-.004-20.307.286-30.43-.111-7.546-.294-14.695-1.668-20.275-7.048-4.757-4.591-8.763-9.793-14.291-13.552-5.871-3.992-12.919-5.415-19.915-4.575-13.222,1.585-21.021,10.766-30.181,19.291-3.212,2.992-6.637,5.538-10.916,5.542-5.432.006-9.972-3.735-13.853-7.164-11.044-9.766-21.615-20.616-37.737-17.986-20.002,3.263-30.228,23.611-47.569,32.045-15.434,7.509-34.67,7.85-50.254.615-3.676-1.707-8.09-1.037-10.273,2.694-1.899,3.246-1,8.557,2.693,10.273,15.414,7.157,32.45,9.003,49.054,5.241,7.891-1.789,15.648-4.948,22.497-9.265,7.511-4.737,13.537-11.086,19.992-17.09,5.841-5.43,13.754-11.642,22.283-9.588,5.674,1.366,10.243,5.945,14.399,9.761,9.889,9.078,21.1,18.402,35.502,14.589,11.305-2.993,17.265-13.095,26.037-19.792,4.351-3.32,9.82-5.294,15.309-4.131,5.747,1.218,9.721,6.475,13.522,10.534,5.198,5.549,10.803,9.943,18.149,12.282,9.12,2.903,19.058,2.446,28.503,2.449,21.177.006,42.356.014,63.535.018,47.96.015,95.923.03,143.884.043,9.665.002,9.679-15.014,0-15.018Zm-91.218-.027c-11.724-.004-23.451-.006-35.177-.01,2.673-2.348,4.641-5.479,5.449-9.062h24.271c.808,3.588,2.779,6.723,5.457,9.072Zm-39.759-69.523c.232-1.885,1.83-3.296,3.725-3.296h14.301c2.077,0,3.754,1.683,3.754,3.754v16.375c0,2.072-1.678,3.754-3.754,3.754h-17.018c-1.079,0-2.101-.462-2.811-1.269-.717-.806-1.047-1.877-.914-2.948l2.717-16.372Z" style="fill: #fff;"/>
</svg>